PathFileType	4	(X/Y/Z)	C:\Users\u0145647\OneDrive - KU Leuven\KU Leuven\c3d2osim\CP4\T0\Data\Processed\ViconC3D_CP4_2\CP4_T0_07_gapFilled.trc
DataRate	CameraRate	NumFrames	NumMarkers	Units	OrigDataRate	OrigDataStartFrame	OrigNumFrames
100.000000	100.000000	10	47	mm	100.000000	183	728
Frame#	Time	C7			T10			CLAV			STRN			LSHO			RSHO			RBAK			LASI			RASI			LPSI			RPSI			LLAT			RLAT			LF1			LF2			LF3			LTHI			LKNE			LMEK			RF1			RF2			RF3			RTHI			RKNE			RMEK			LT1			LT2			LT3			LTIB			LANK			LMM			RT1			RT2			RT3			RTIB			RANK			RMM			LHEE			LSTL			LLCA			LTOE			LCM5			RHEE			RSTL			RLCA			RTOE			RCM5
		X1	Y1	Z1	X2	Y2	Z2	X3	Y3	Z3	X4	Y4	Z4	X5	Y5	Z5	X6	Y6	Z6	X7	Y7	Z7	X8	Y8	Z8	X9	Y9	Z9	X10	Y10	Z10	X11	Y11	Z11	X12	Y12	Z12	X13	Y13	Z13	X14	Y14	Z14	X15	Y15	Z15	X16	Y16	Z16	X17	Y17	Z17	X18	Y18	Z18	X19	Y19	Z19	X20	Y20	Z20	X21	Y21	Z21	X22	Y22	Z22	X23	Y23	Z23	X24	Y24	Z24	X25	Y25	Z25	X26	Y26	Z26	X27	Y27	Z27	X28	Y28	Z28	X29	Y29	Z29	X30	Y30	Z30	X31	Y31	Z31	X32	Y32	Z32	X33	Y33	Z33	X34	Y34	Z34	X35	Y35	Z35	X36	Y36	Z36	X37	Y37	Z37	X38	Y38	Z38	X39	Y39	Z39	X40	Y40	Z40	X41	Y41	Z41	X42	Y42	Z42	X43	Y43	Z43	X44	Y44	Z44	X45	Y45	Z45	X46	Y46	Z46	X47	Y47	Z47

183	1.82	-1377.8	1406	-147.46	-1396.8	1144.6	-178.97	-1261.5	1328	-145.58	-1222.6	1179.3	-157.92	-1296.2	1378	-356.99	-1347.9	1343.2	43.925	-1421.8	1306.4	-36.991	-1207.9	890.19	-260.94	-1225.4	899.31	-58.749	-1384.8	925	-213.11	-1395.2	931.61	-139.39	-1266.3	959.39	-317.35	-1302.3	963.56	-18.592	-1257.6	618.49	-316	-1266.5	663.96	-320.58	-1290.1	617.18	-328.6	-1276.2	544.12	-367.94	-1303.9	413.54	-299.88	NaN	NaN	NaN	-1234.5	622.73	-30.023	-1223.1	658.96	-22.737	-1282.2	646.22	-28.804	-1214.9	559.15	0.11589	-1156.1	456.95	-84.452	NaN	NaN	NaN	-1465.9	326.62	-319.78	-1405.9	321.13	-305.97	-1437.4	361.58	-318.5	-1477.1	238.69	-339.49	-1650.3	174.08	-291.57	-1632.4	174.89	-204.91	-1185	308.56	-69.188	-1157.3	349.62	-84.93	-1207	355.93	-66.231	-1168.7	235.22	-31.995	-1213.1	62.193	-93.197	-1207.6	81.039	-178.62	-1693.3	204.11	-246.36	-1655.6	156.47	-208.24	-1667.8	152.69	-284.45	-1608.7	53.656	-231.56	-1621.1	48.165	-275.77	-1266.4	57.815	-129.54	-1209.7	44.928	-175.37	-1207.1	37.437	-97.206	-1086.5	40.682	-135.39	-1106.9	24.933	-79.663
184	1.83	-1366.4	1406.9	-144.93	-1384.7	1145.6	-176.68	-1250.1	1329.5	-144.05	-1210.3	1181.1	-157.69	-1286.9	1379.6	-355.33	-1334.2	1344	46.146	-1408.9	1307	-33.959	-1197.5	890.59	-260.52	-1214.2	899.57	-58.072	-1374.1	926.47	-211.81	-1384.1	933.5	-138.15	-1256	960.26	-316.71	-1289.5	964.06	-17.53	-1243	619.98	-317.91	-1254.1	665.39	-321.2	-1276.5	617.95	-329.06	-1261.4	545.9	-369.33	-1286.4	414.09	-302.22	NaN	NaN	NaN	-1228.1	623.26	-29.418	-1215.9	659.2	-22.157	-1274.9	647.21	-28.65	-1209.4	559.23	0.52502	-1151.4	456.28	-84.144	NaN	NaN	NaN	-1448.3	328.58	-321.73	-1389	322.77	-307.69	-1419.6	363.45	-321.18	-1461.1	240.78	-340.72	-1635.9	179.93	-292.93	-1617.6	181.09	-206.55	-1181.5	308.17	-68.97	-1153.5	348.87	-85.006	-1202.9	355.82	-65.599	-1165.4	234.22	-32.353	-1213.2	62.091	-92.984	-1207.5	80.984	-178.23	-1678	211.03	-248.12	-1641.4	163.43	-209.62	-1654	159.09	-285.77	-1596.1	59.07	-231.95	-1609.3	53.862	-276	-1266.3	58.139	-129.38	-1209.7	44.929	-175.41	-1206.9	37.513	-97.365	-1086.4	40.527	-135.51	-1106.9	24.934	-79.682
185	1.84	-1355.1	1408	-142.39	-1372.9	1146.6	-174.54	-1238.5	1330.9	-142.52	-1198.3	1182.7	-157.68	-1277.7	1381.1	-353.88	-1320.7	1344.8	48.266	-1396.2	1307.7	-31.09	-1186.9	891.45	-260.13	-1207.1	899.89	-56.619	-1363.4	928.12	-211	-1373.1	935.63	-137.4	-1245.4	961.4	-316.11	-1277.1	965.11	-16.781	-1229.2	621.37	-318.58	-1241.1	666.65	-321.3	-1262.7	618.92	-329.35	-1246.6	547.69	-370.72	-1268.8	415.05	-304.5	NaN	NaN	NaN	-1221.6	624.29	-28.561	-1208.8	659.93	-21.106	-1267.8	648.86	-27.729	-1203.7	559.88	1.3542	-1147.5	455.68	-83.47	NaN	NaN	NaN	-1430.6	330.74	-323.96	-1371.5	324.4	-309.72	-1401.4	365.11	-323.6	-1444.8	242.9	-341.91	-1620.7	184.56	-294.39	-1601.6	186.32	-208.25	-1178.9	307.88	-68.272	-1150.6	348.49	-84.6	-1199.7	355.53	-64.848	-1163.2	233.73	-31.848	-1212.5	61.584	-93.129	-1207.3	81.164	-178.21	-1662.1	216.02	-249.55	-1625.7	168.83	-210.8	-1638.9	163.88	-286.86	-1579.1	64.884	-232.41	-1593.4	58.234	-275.83	-1266.1	58.432	-129.08	-1209.7	45.012	-175.37	-1206.8	37.476	-97.293	-1086.4	40.437	-135.47	-1106.8	24.879	-79.629
186	1.85	-1344	1409.2	-139.98	-1361.4	1147.9	-172.53	-1227.5	1332.1	-141.02	-1187.2	1183.8	-156.39	-1268.7	1382.6	-352.47	-1307.5	1345.8	50.305	-1383.7	1308.6	-28.407	-1176.4	892.26	-259.28	-1197.1	900.72	-55.835	-1352.8	930.08	-210.62	-1362.5	938.18	-137.02	-1234.6	962.81	-315.35	-1265.3	966.54	-16.087	-1215.2	623.07	-319.2	-1228.3	668.12	-321.72	-1248.7	620.12	-329.87	-1231.7	549.44	-371.82	-1250.8	416.19	-306.42	NaN	NaN	NaN	-1214.9	625.48	-27.586	-1201	660.58	-20.459	-1260.8	650.79	-26.473	-1197.9	560.94	2.3867	-1144.2	455.09	-82.293	NaN	NaN	NaN	-1412.2	332.75	-326.08	-1353.4	325.87	-311.11	-1382.9	366.9	-325.8	-1427.3	244.5	-343.6	-1603.3	186.76	-294.87	-1584.3	190.67	-209.66	-1177	307.55	-67.233	-1148.2	347.84	-83.542	-1197.5	355.56	-63.909	-1162.2	233.25	-30.859	-1212	61.737	-92.646	-1207	80.873	-178.35	-1645.6	219.06	-250.89	-1608.3	172.7	-212	-1622	166.57	-287.88	-1559.3	69.51	-232.79	-1574.5	61.976	-275.22	-1266	58.734	-128.7	-1209.8	45.173	-175.12	-1206.7	37.471	-97.104	-1086.3	40.39	-135.37	-1106.8	24.78	-79.469
187	1.86	-1332.8	1410.5	-137.66	-1350	1149.4	-170.8	-1215.8	1334	-140.23	-1175.7	1185.4	-156.09	-1260	1384.2	-351.22	-1294.5	1346.8	52.283	-1371.4	1309.5	-25.84	-1166.1	893.23	-258.25	-1187.6	901.71	-55.285	-1342.4	932.27	-210.51	-1351.9	940.89	-136.98	-1224	964.53	-314.51	-1254.2	968.5	-15.538	-1201.2	624.97	-319.9	-1215.7	669.69	-322.39	-1234.5	621.47	-330.25	-1216.4	551.39	-372.93	-1232.8	417.93	-308.39	NaN	NaN	NaN	-1208.6	626.73	-26.517	-1194.6	662.02	-19.07	-1253.7	652.57	-25.38	-1192.6	561.92	3.4519	-1142	455.07	-81.026	NaN	NaN	NaN	-1393.7	334.47	-328.05	-1335	327.64	-312.97	-1364.3	368.51	-327.75	-1409.3	246.47	-345.06	-1585.5	187.91	-295.94	-1565.5	193.61	-211.03	-1175.2	307.25	-66.465	-1146.3	347.63	-82.406	-1195.8	355.81	-62.986	-1161.5	232.93	-29.86	-1211.5	61.636	-92.29	-1207	81.551	-177.62	-1627.5	220.43	-252.06	-1589.3	175.2	-213.01	-1603.9	167.79	-288.69	-1538	73.222	-232.48	-1554	64.112	-274.64	-1266	59.084	-128.25	-1209.8	45.439	-174.78	-1206.8	37.488	-97.007	-1086.4	40.307	-135.25	-1106.8	24.715	-79.28
188	1.87	-1321.9	1412	-135.44	-1338.9	1151.2	-169.25	-1204.6	1335.9	-139.67	-1165	1187.1	-154.85	-1251.5	1385.9	-350.04	-1281.7	1348.1	54.103	-1359.2	1310.6	-23.378	-1156	894.33	-257.06	-1177.6	903.23	-54.539	-1332	934.62	-210.54	-1341.5	943.59	-137.03	-1213.2	966.21	-313.78	-1243.6	970.77	-15.143	-1187	627.26	-320.54	-1202.5	671.81	-322.29	-1220.4	623.22	-330.73	-1201.7	553.89	-373.98	-1214.3	419.81	-310.01	NaN	NaN	NaN	-1202.6	627.94	-25.675	-1187.9	662.92	-18.252	-1247.5	654.7	-24.326	-1187.7	562.87	4.3186	-1139	454.83	-79.865	NaN	NaN	NaN	-1374.5	335.46	-329.65	-1316	329.15	-314.79	-1345.2	369.81	-329.48	-1389.8	247.27	-346.19	-1565.9	187.87	-296.56	-1545.6	194.95	-212.16	-1173.9	307.11	-65.557	-1144.7	347.48	-81.41	-1194.2	355.91	-62.124	-1160.8	232.58	-28.793	-1212.2	62.028	-91.858	-1207	81.81	-177.24	-1608.4	220.65	-253.13	-1569.2	176.54	-213.82	-1584.1	167.82	-289.29	-1516.1	75.364	-231.78	-1532.2	65.103	-273.41	-1265.8	59.294	-127.82	-1209.9	45.662	-174.43	-1206.5	37.478	-96.545	-1086.4	40.259	-135.13	-1106.8	24.573	-79.098
189	1.88	-1310.9	1413.6	-133.4	-1327.9	1153.1	-167.81	-1193.3	1337.6	-139.13	-1153.8	1189	-154.76	-1243.3	1387.6	-348.92	-1269	1349.5	55.822	-1347.1	1312	-20.972	-1145.8	895.7	-255.66	-1166.1	905.56	-54.367	-1321.7	937	-210.62	-1331.3	946.26	-137.04	-1202.3	967.97	-312.8	-1233.4	973.02	-14.764	-1172.5	630.05	-321.6	-1188.3	673.57	-322.06	-1206	625.21	-331.08	-1186.2	556.59	-375.09	-1195.4	421.92	-311.26	NaN	NaN	NaN	-1197.1	628.93	-24.966	-1181.5	663.68	-17.396	-1241.4	656.72	-23.685	-1182.9	563.39	4.9374	-1136.8	454.69	-78.989	NaN	NaN	NaN	-1354.7	335.97	-331.1	-1296.2	330.33	-315.75	-1325.8	370.58	-330.78	-1369.2	247.19	-346.5	-1545.2	187.09	-297.38	-1524.9	195.16	-213.08	-1172.5	307.16	-64.677	-1142.9	347.22	-80.492	-1192.3	355.96	-61.521	-1160.3	232.66	-27.779	-1211.9	62.181	-91.351	-1206.9	82.227	-176.81	-1588.2	219.77	-254.4	-1548.2	176.62	-214.64	-1563	166.79	-290.14	-1492.9	77.01	-231.89	-1509.1	65.499	-272.4	-1265.4	59.213	-127.69	-1210	45.946	-174.09	-1206.4	37.484	-96.267	-1086.6	40.079	-135	-1106.8	24.514	-78.945
190	1.89	-1300.1	1415.3	-131.36	-1317.3	1155	-166.54	-1182.7	1339.1	-138.16	-1142.8	1190.8	-154.58	-1235.2	1389.5	-347.83	-1256.4	1351	57.359	-1335.3	1313.6	-18.641	-1135.8	897.16	-254.31	-1156	906.91	-53.661	-1311.6	939.42	-210.61	-1321.2	948.74	-137.05	-1191.4	969.86	-311.92	-1223.5	975.15	-14.48	-1158	632.89	-322.33	-1174.9	676.08	-322.06	-1191.3	627.37	-331.19	-1171	559.26	-375.8	-1176.5	424.42	-312.18	NaN	NaN	NaN	-1191.7	629.82	-24.438	-1175.5	664.33	-16.872	-1235.4	658.34	-23.275	-1178.7	563.94	5.3312	-1133.8	454.37	-78.519	NaN	NaN	NaN	-1334.3	336.03	-332.09	-1275.8	331.26	-316.32	-1306	371.16	-331.86	-1347.4	246.21	-346.34	-1523.4	185.48	-297.96	-1503.3	194.69	-214.06	-1171	307.22	-64.197	-1140.9	346.89	-79.919	-1190.3	356.03	-60.957	-1159.2	232.56	-27.386	-1211.7	62.426	-90.951	-1206.9	82.449	-176.59	-1567.1	217.88	-255.44	-1526.3	175.95	-215.38	-1541	165.16	-290.93	-1468.9	77.42	-231.16	-1484.8	65.317	-272.2	-1265.7	60.076	-126.91	-1210.1	46.181	-173.81	-1206.4	37.519	-96.206	-1086.5	40.112	-134.98	-1106.8	24.466	-78.857
191	1.9	-1289.3	1416.8	-129.53	-1306.7	1156.8	-165.23	-1172.1	1340.6	-137.7	-1131.9	1192.9	-154.4	-1227.1	1391.5	-346.75	-1243.8	1352.6	58.794	-1323.5	1315.3	-16.408	-1125.9	898.89	-252.92	-1146.7	908.29	-52.906	-1301.4	941.81	-210.56	-1311.3	951.01	-136.98	-1180.7	971.93	-311.15	-1213.9	977.07	-13.97	-1143.3	635.64	-322.51	-1161.3	678.55	-322.21	-1176.7	629.74	-331.34	-1155.3	562.16	-376.4	-1157.3	427.09	-312.66	NaN	NaN	NaN	-1186.4	630.52	-24.196	-1169.7	664.92	-16.335	-1229.2	659.65	-23.149	-1175.3	564.68	5.5603	-1131.4	454.09	-78.353	NaN	NaN	NaN	-1313.3	336.01	-332.64	-1254.9	332.31	-316.59	-1285.6	371.51	-332.64	-1325.1	245.85	-346.28	-1500.9	183.53	-298.73	-1480.8	193.36	-214.76	-1169.4	307.27	-63.802	-1139.1	346.7	-79.761	-1188.2	356	-60.536	-1157.7	232.35	-27.199	-1211.6	62.593	-90.869	-1206.8	82.655	-176.34	-1545.2	215.3	-256.21	-1503.3	174.08	-216.12	-1517.8	162.81	-291.58	-1443.8	77.304	-231.65	-1459.4	64.69	-272.4	-1265.6	60.543	-126.55	-1210.1	46.378	-173.59	-1206.3	37.668	-96.017	-1086.4	40.084	-134.96	-1106.8	24.434	-78.81
192	1.91	-1278.6	1418.5	-127.77	-1296.5	1158.7	-163.97	-1161.4	1342.5	-136.95	-1121.6	1194.7	-153.59	-1218.9	1393.3	-345.71	-1231.5	1354.3	60.075	-1312	1317.2	-14.281	-1116.2	900.52	-251.74	-1137.2	909.48	-52.254	-1291.4	944.04	-210.39	-1301.6	953.09	-136.86	-1170.4	974.11	-310.38	-1204.8	978.78	-13.453	-1128.8	638.73	-322.99	-1147.5	681.15	-322.23	-1161.7	631.99	-331.23	-1139.5	564.95	-376.72	-1137.8	429.81	-312.63	NaN	NaN	NaN	-1181	630.96	-24.184	-1163.6	665.06	-16.332	-1223.4	660.87	-23.274	-1171.1	565.02	5.5733	-1128.1	453.7	-78.159	NaN	NaN	NaN	-1292.1	336.26	-332.78	-1233.6	333.81	-316.73	-1264.9	372.09	-332.75	-1302.3	245.86	-346.24	-1477.4	181.2	-298.97	-1457.4	191.22	-215.21	-1167.7	307.21	-63.593	-1136.7	346.39	-79.751	-1186.2	356.32	-60.236	-1156	232.24	-27.387	-1211.5	62.831	-90.774	-1206.7	82.943	-176.13	-1522.4	212.01	-256.6	-1479.5	171.58	-216.69	-1495.9	161.91	-293.24	-1417.3	76.861	-232.82	-1432.7	63.689	-273.77	-1265.5	60.982	-126.22	-1210.1	46.596	-173.41	-1206.2	38.102	-95.784	-1086.4	39.977	-134.96	-1106.8	24.416	-78.788
